<svg viewBox="0 0 96 96" xmlns="http://www.w3.org/2000/svg" xmlns:xlink="http://www.w3.org/1999/xlink" id="Icons_Thermometer" overflow="hidden"><g><path d="M48 86.3C41.5 86.3 35.8 81.7 34.4 75.4 32.9 69 36.1 62.5 42 59.7L42 15.7C42 12.4 44.7 9.7 48 9.7 51.3 9.7 54 12.4 54 15.7L54 59.7C59.9 62.5 63 69 61.6 75.4 60.1 81.7 54.5 86.2 48 86.3L48 86.3ZM60 56.3 60 15.7C60 9.1 54.6 3.7 48 3.7 41.4 3.7 36 9 36 15.7L36 56.3C29.1 61.5 26.3 70.5 29 78.6 31.7 86.8 39.4 92.3 48 92.3 56.6 92.3 64.3 86.8 67 78.6 69.7 70.5 66.9 61.5 60 56.3Z" stroke="none" stroke-width="1" stroke-linecap="butt" fill="#FFFFFF" fill-opacity="1"/><path d="M50 62.5 50 38.3 46 38.3 46 62.5C41 63.5 37.5 68.2 38.1 73.3 38.6 78.4 42.9 82.3 48 82.3 53.1 82.3 57.4 78.4 57.9 73.3 58.5 68.2 55 63.5 50 62.5Z" stroke="none" stroke-width="1" stroke-linecap="butt" fill="#FFFFFF" fill-opacity="1"/></g></svg>