<svg viewBox="0 0 96 96" xmlns="http://www.w3.org/2000/svg" xmlns:xlink="http://www.w3.org/1999/xlink" id="Icons_CustomerReviewRTL" overflow="hidden"><circle cx="27.94" cy="56.53" r="7.78" stroke="none" stroke-width="1" stroke-linecap="butt" fill="#FFFFFF" fill-opacity="1"/><circle cx="69.43" cy="56.53" r="7.78" stroke="none" stroke-width="1" stroke-linecap="butt" fill="#FFFFFF" fill-opacity="1"/><path d="M12.38 74.17 12.38 82 29.63 82 29.63 80.22C29.601 77.9072 30.688 75.7221 32.55 74.35 34.9193 72.4903 37.6407 71.1296 40.55 70.35L40.19 69.94C38.3701 68.8186 36.3958 67.9696 34.33 67.42 32.2657 66.7533 30.1093 66.4158 27.94 66.42 25.7725 66.4766 23.6214 66.8127 21.54 67.42 18.7705 68.0648 16.174 69.3034 13.93 71.05 12.9309 71.7712 12.3512 72.9382 12.38 74.17Z" stroke="none" stroke-width="1" stroke-linecap="butt" fill="#FFFFFF" fill-opacity="1"/><path d="M67.71 82 85 82 85 74.17C84.9847 72.9461 84.41 71.7965 83.44 71.05 81.1381 69.3993 78.5614 68.1703 75.83 67.42 73.7632 66.7493 71.6029 66.4117 69.43 66.42 67.2659 66.4774 65.1182 66.8135 63.04 67.42 61.0473 67.909 59.1347 68.6802 57.36 69.71 57.18 69.93 56.99 70.15 56.79 70.36 59.6022 71.2379 62.2582 72.5541 64.66 74.26L64.79 74.35 64.9 74.45C66.6713 75.8412 67.7069 77.9677 67.71 80.22Z" stroke="none" stroke-width="1" stroke-linecap="butt" fill="#FFFFFF" fill-opacity="1"/><path d="M33.12 88 33.12 80.22C33.088 78.9879 33.6732 77.8211 34.68 77.11 36.9216 75.3595 39.519 74.1206 42.29 73.48 44.3704 72.868 46.5221 72.5318 48.69 72.48 50.8597 72.4709 53.0169 72.8085 55.08 73.48 57.8145 74.2219 60.3926 75.4517 62.69 77.11 63.6692 77.8444 64.2469 78.996 64.25 80.22L64.25 88Z" stroke="none" stroke-width="1" stroke-linecap="butt" fill="#FFFFFF" fill-opacity="1"/><circle cx="48.69" cy="62.58" r="7.78" stroke="none" stroke-width="1" stroke-linecap="butt" fill="#FFFFFF" fill-opacity="1"/><path d="M12.19 12 12.19 34C12.19 36.2091 13.9809 38 16.19 38L32.19 38 32.19 44 38.49 38 45.59 38 49.19 44 53.09 38 59.89 38 66.19 44 66.19 38 80.94 38C83.1491 38 84.94 36.2091 84.94 34L84.94 12C84.94 9.79086 83.1491 8 80.94 8L16.19 8C13.9809 8 12.19 9.79086 12.19 12ZM74.94 19 28.19 19 28.19 17 74.94 17ZM38.19 27 74.94 27 74.94 29 38.19 29ZM22.19 22 74.94 22 74.94 24 22.19 24Z" stroke="none" stroke-width="1" stroke-linecap="butt" fill="#FFFFFF" fill-opacity="1"/></svg>