<svg viewBox="0 0 96 96" xmlns="http://www.w3.org/2000/svg" xmlns:xlink="http://www.w3.org/1999/xlink" id="Icons_MapWithPin" overflow="hidden"><path d="M68 30.2C65.6 30.2 63.6 28.2 63.7 25.7 63.7 23.3 65.7 21.3 68.1 21.3 70.5 21.3 72.5 23.3 72.5 25.7 72.5 26.9 72 28 71.2 28.8 70.3 29.7 69.2 30.2 68 30.2ZM63.7 16.3C61.5 17.1 59.8 18.8 58.7 20.8 57.3 23.5 57.1 26.6 58.2 29.4L63 39.8 66.2 46.4C66.5 47.1 67.2 47.5 68 47.5 68.8 47.5 69.5 47.1 69.8 46.4L73 39.8 77.8 29.5C78.3 28.3 78.5 27 78.5 25.7 78.5 18.7 71.3 13.4 63.7 16.3Z" stroke="none" stroke-width="1" stroke-linecap="butt" fill="#FFFFFF" fill-opacity="1"/><path d="M46 72.8 30 64.8 30 32.2 46 40.2 46 72.8ZM26 64.8 14 70.8 14 38.2 26 32.2 26 64.8ZM81.4 31.2 81.4 31.2 78.9 36.6 82 38.2 82 70.8 70 64.8 70 51.5 66 51.5 66 64.8 50 72.8 50 40.2 57.1 36.6 54.6 31.2 48 34.5 28 24.5 8 34.5 8 80.5 28 70.5 48 80.5 68 70.5 88 80.5 88 34.5 81.4 31.2Z" stroke="none" stroke-width="1" stroke-linecap="butt" fill="#FFFFFF" fill-opacity="1"/></svg>