<svg viewBox="0 0 96 96" xmlns="http://www.w3.org/2000/svg" xmlns:xlink="http://www.w3.org/1999/xlink" id="Icons_RainScene" overflow="hidden"><path d="M34 33.94C34 35.641 32.621 37.02 30.92 37.02 29.219 37.02 27.84 35.641 27.84 33.94 27.84 32.24 30.92 27.78 30.92 27.78 30.92 27.78 34 32.24 34 33.94Z" stroke="none" stroke-width="1" stroke-linecap="butt" fill="#FFFFFF" fill-opacity="1"/><path d="M40.56 32.18C40.56 33.395 39.575 34.38 38.36 34.38 37.145 34.38 36.16 33.395 36.16 32.18 36.16 30.97 38.36 27.78 38.36 27.78 38.36 27.78 40.56 31 40.56 32.18Z" stroke="none" stroke-width="1" stroke-linecap="butt" fill="#FFFFFF" fill-opacity="1"/><path d="M25.6 32.18C25.6819 33.3923 24.7655 34.4414 23.5532 34.5232 22.341 34.6051 21.2919 33.6887 21.21 32.4765 21.2033 32.3778 21.2033 32.2787 21.21 32.18 21.21 30.97 23.4 27.78 23.4 27.78 23.4 27.78 25.6 31 25.6 32.18Z" stroke="none" stroke-width="1" stroke-linecap="butt" fill="#FFFFFF" fill-opacity="1"/><path d="M45.84 21.84C45.8488 19.5425 43.9935 17.6729 41.696 17.6641 41.4628 17.6632 41.23 17.6819 41 17.72L41 17.66C40.9972 14.7495 38.6355 12.3923 35.725 12.395 35.1661 12.3956 34.6108 12.485 34.08 12.66 32.4134 9.55546 28.5457 8.38973 25.4412 10.0563 23.4109 11.1462 22.1261 13.2461 22.08 15.55 19.2208 14.9769 16.4384 16.8301 15.8653 19.6893 15.2922 22.5485 17.1454 25.331 20.0046 25.9041 20.2571 25.9547 20.5129 25.9867 20.77 26L41.88 26C44.0945 25.8833 45.8325 24.0576 45.84 21.84Z" stroke="none" stroke-width="1" stroke-linecap="butt" fill="#FFFFFF" fill-opacity="1"/><path d="M42.33 64C48.7105 60.6893 55.8125 59.0126 63 59.12L63.42 59.12C57.9993 54.7651 51.3009 52.3064 44.35 52.12 39.7259 52.1043 35.1549 53.1045 30.96 55.05 35.3309 57.2105 39.2034 60.2587 42.33 64Z" stroke="none" stroke-width="1" stroke-linecap="butt" fill="#FFFFFF" fill-opacity="1"/><path d="M12.51 75C28.45 73.74 36.76 67.78 37.31 67.38 38.0804 66.7234 38.8884 66.1124 39.73 65.55 27.4 51.29 5 53 5 53L5 75.31Z" stroke="none" stroke-width="1" stroke-linecap="butt" fill="#FFFFFF" fill-opacity="1"/><path d="M87.46 70.41C86.6869 69.6877 85.8649 69.0194 85 68.41L85 56.7C88.3886 55.5271 90.6183 52.2839 90.5 48.7 90.5 43.7 84.62 32.52 83 32.52 81.38 32.52 75.5 43.74 75.5 48.7 75.3817 52.2839 77.6114 55.5271 81 56.7L81 66.08C77.2142 64.2662 73.1633 63.0678 69 62.53L69 42.76C73.64 41.76 77.14 37.06 77.14 30.51 77.14 23.05 69.43 7 67 7 64.57 7 56.86 23.05 56.86 30.51 56.86 37.06 60.36 41.72 65 42.76L65 62.17C64.32 62.17 63.64 62.12 63 62.12 53.62 62.12 44.94 64.91 39.24 69.75 39.14 69.82 30.35 76.65 12.73 78.02L5 78 5 89 91 89 91 73.21Z" stroke="none" stroke-width="1" stroke-linecap="butt" fill="#FFFFFF" fill-opacity="1"/></svg>