<svg viewBox="0 0 96 96" xmlns="http://www.w3.org/2000/svg" xmlns:xlink="http://www.w3.org/1999/xlink" id="Icons_ThumbsUpSign" overflow="hidden"><path d="M88 47C88 43.7 85.3 41 82 41L63 41C61.4 41 60.1 39.7 60 38.1 60.1 36.3 63 32.7 63 19 63 15.7 60.3 13 57 13 53.7 13 51 15.7 51 19 51 34.2 33.3 42.8 33 43L33 75C40.1 75 40.6 83 54 83 58.5 83 72 83 72 83 75.3 83 78 80.3 78 77 78 75.4 77.4 74 76.4 73 76.6 73 76.8 73 77 73 80.3 73 83 70.3 83 67 83 65.4 82.4 63.9 81.3 62.8 84 62.2 86 59.8 86 57 86 55.3 85.3 53.7 84.1 52.6 86.4 51.8 88 49.6 88 47Z" stroke="none" stroke-width="1" stroke-linecap="butt" fill="#FFFFFF" fill-opacity="1"/><path d="M23 38 8 38 8 80 23 80C25.2 80 27 78.2 27 76L27 42C27 39.8 25.2 38 23 38Z" stroke="none" stroke-width="1" stroke-linecap="butt" fill="#FFFFFF" fill-opacity="1"/></svg>