<svg viewBox="0 0 96 96" xmlns="http://www.w3.org/2000/svg" xmlns:xlink="http://www.w3.org/1999/xlink" id="Icons_EarthGlobeEuropeAfrica" overflow="hidden"><g><path d="M48 10C27 10 10 27 10 48 10 69 27 86 48 86 69 86 86 69 86 48 86 27 69 10 48 10ZM48 82C29.3 82 14 66.7 14 48 14 29.3 29.3 14 48 14 52.9 14 57.5 15 61.7 16.9L58.5 19.5C58.1 19.8 57.7 20 57.2 20L55.3 20C55.1 20 54.8 20 54.6 19.9 54.6 19.9 49.7 17 46.9 17 44.2 17 39.8 18.7 37.9 20 35 21.9 38.1 22.8 38.8 23 38.9 23 39 23 39 23L41.8 23C42.5 23 43.1 22.7 43.5 22.1L44.6 20.4C44.8 20.1 45.1 20 45.4 20L47 20 44.9 23.5C44.4 24.4 43.4 25 42.3 25L39.6 25C39.2 25 38.8 25.1 38.5 25.3L36 27 34 27C33.4 27 33 27.4 33 28L33 29C33 29.6 32.6 30 32 30L31.1 30C30.4 30 29.8 30.3 29.4 30.9L28.2 32.8C28.1 33 28 33.2 28 33.4L28 34C28 34.6 28.4 35 29 35L32.6 35C32.9 35 33.1 34.9 33.3 34.7L36.4 31.6C36.8 31.2 37.3 31 37.8 31L38.2 31C38.7 31 39.1 31.3 39.2 31.8L39.8 34.3C39.9 34.7 40.3 35.1 40.8 35.1L41 35.1C41.6 35.1 42 34.7 42 34.1L42 31.5C42 31.2 42.1 31 42.3 30.8L43 30 43.8 32.3C43.9 32.7 44.3 33 44.7 33L45.6 33C45.9 33 46.1 32.9 46.3 32.7L46.7 32.3C46.9 32.1 47.1 32 47.4 32L48 32C48.6 32 49 32.4 49 33L49 34C49 34.6 49.4 35 50 35L53.6 35C54.3 35 54.8 35.7 54.5 36.3L54.2 37.2C54 37.7 53.6 38 53.1 37.9L48.3 37.1C48.1 37.1 47.8 37.1 47.6 37.1L43.5 37.9C43.1 38 42.8 37.9 42.4 37.8 41.1 37.3 37.5 36 36 36 24.1 36 24 44 24 47 24 51 26.3 54 30 54 34.4 54 40 53.8 40 62L40 68.2C40 69.4 40.4 70.5 41.2 71.4L44.1 74.9C44.7 75.6 45.5 76 46.4 76L48.8 76C49.6 76 50.4 75.7 50.9 75.1L53.3 72.7C53.8 72.2 54.1 71.7 54.4 71.1L56.4 67C56.7 66.3 56.9 65.5 56.9 64.8L56.9 60.2C56.9 59.4 57.2 58.6 57.8 58.1L63.1 52.8C63.5 52.4 63.5 51.6 63 51.3 63 51.3 57 47.9 53.7 41.5 53.4 40.8 53.8 40 54.6 40L55 40 60.7 47.4C61.4 48.3 62.7 48.4 63.6 47.7L66.9 44.9C67.4 44.5 67.4 43.6 66.8 43.3L63.8 41.5C63.4 41.2 63.2 40.7 63.4 40.2L63.5 40C63.8 39.5 64.4 39.3 64.9 39.6L68.5 41.8C68.8 42 69.2 42.1 69.5 42.1L70.6 42.1C71.4 42.1 72.1 42.6 72.4 43.3L75.3 49.9C75.6 50.6 76.3 51.1 77.1 51.1L77.1 51.1C78 51.1 78.8 50.3 78.8 49.4L78.8 46.6C78.8 46.3 78.9 46 79.2 45.8L81.5 44C81.7 45.3 81.8 46.7 81.8 48.1 82 66.7 66.7 82 48 82Z" stroke="none" stroke-width="1" stroke-linecap="butt" fill="#FFFFFF" fill-opacity="1"/><path d="M30 27 30 28 31 28C31.6 28 32 27.6 32 27L32 26 33 26 33 24.4C33 24.1 32.9 23.9 32.7 23.7L31.7 22.7C31.3 22.3 30.7 22.3 30.3 22.7L28.7 24.3C28.3 24.7 28.3 25.3 28.7 25.7L30 27Z" stroke="none" stroke-width="1" stroke-linecap="butt" fill="#FFFFFF" fill-opacity="1"/></g></svg>